<svg width="20" height="20" viewBox="0 0 20 20" fill="none" xmlns="http://www.w3.org/2000/svg">
<g clip-path="url(#clip0_1_1267)">
<path d="M11.875 16.875H16.875C17.4928 16.875 18.0178 16.7356 18.4538 16.4928L11.875 12.5684V16.875ZM19.8938 14.4406C19.965 14.1228 20.0013 13.7863 20.0013 13.4372V11.8747H15.5919L19.8925 14.4406M0.109382 5.54969C0.0353202 5.88217 -0.00136564 6.22188 6.59445e-06 6.5625V8.125H4.42626L0.109382 5.54969ZM8.12501 3.125H3.12501C2.51157 3.125 1.99001 3.2625 1.55594 3.50188L8.12501 7.42063V3.125ZM1.57594 16.5081C2.00594 16.7406 2.52063 16.875 3.12501 16.875H8.12501V12.6013L1.57594 16.5081ZM6.59445e-06 11.875V13.4375C6.59445e-06 13.7972 0.0381316 14.1438 0.113444 14.4697L4.46313 11.875H6.59445e-06ZM18.4734 3.51719C18.0341 3.26781 17.5019 3.125 16.875 3.125H11.875V7.45344L18.4734 3.51719ZM20 8.125V6.5625C20 6.22063 19.9647 5.89094 19.8963 5.57906L15.6288 8.125H20Z" fill="#2E3192"/>
<path d="M15.6288 8.125L19.8962 5.57906C19.7006 4.68406 19.2244 3.94313 18.4734 3.51719L11.875 7.45344V3.125H11.25V8.75H20V8.125H15.6288ZM0 11.25V11.875H4.46312L0.113438 14.4697C0.32 15.3619 0.810625 16.0944 1.57594 16.5081L8.125 12.6013V16.875H8.75V11.25H0ZM20 11.25H11.25V16.875H11.875V12.5684L18.4537 16.4931C19.2103 16.0719 19.6925 15.335 19.8925 14.4413L15.5919 11.875H20V11.25ZM8.125 3.125V7.42063L1.55594 3.50188C0.796563 3.92063 0.31125 4.65625 0.109063 5.54969L4.42625 8.125H0V8.75H8.75V3.125H8.125Z" fill="#E6E7E8"/>
<path d="M11.25 8.75V3.125H8.75V8.75H0V11.25H8.75V16.875H11.25V11.25H20V8.75H11.25Z" fill="#BE1E2D"/>
<path d="M6.85563 8.125L0.59 4.38469C0.455313 4.58469 0.347188 4.80469 0.257812 5.03907L5.42875 8.125H6.85469M19.7156 15.0281L14.4616 11.875H13.0066L19.3544 15.6934C19.5016 15.4877 19.6229 15.2647 19.7156 15.0294M18.9747 3.87219L11.8653 8.125L13.3088 8.12594L19.4434 4.45313C19.3066 4.20407 19.1622 4.04344 18.9747 3.87219ZM0.566563 15.5859C0.707135 15.8 0.876304 15.9939 1.06938 16.1622L8.14469 11.875H6.71875L0.566563 15.5859Z" fill="#BE1E2D"/>
</g>
<defs>
<clipPath id="clip0_1_1267">
<rect width="20" height="20" fill="white"/>
</clipPath>
</defs>
</svg>
