<svg width="368" height="328" viewBox="0 0 368 328" fill="none" xmlns="http://www.w3.org/2000/svg">
<path d="M27.8592 211.753C42.2954 259.385 78.2452 299.836 128.694 318.12C204.963 345.762 288.232 313.266 326.755 244.871L367.424 259.612L322.649 163.926L226.965 208.703L274.079 225.779C246.752 265.688 194.98 283.72 147.401 266.476C113.897 254.333 90.0033 227.427 80.3991 195.759C77.1219 184.952 75.5203 173.591 75.7574 162.073L46.3041 175.857C47.7876 192.615 52.4168 208.574 59.6391 223.084C76.1604 260.866 108.538 290.707 149.241 303.222C98.5813 292.598 58.6488 255.373 43.1976 207.874C42.8401 206.774 42.4964 205.67 42.1647 204.561C39.2415 194.761 37.359 184.545 36.624 174.06L22.2319 143.303C19.1598 166.665 21.2541 189.962 27.8592 211.753ZM0.50237 66.3978L45.2753 162.083L140.96 117.306L96.0438 101.026C123.678 62.3779 174.602 45.1421 221.463 62.126C265.391 78.0467 292.786 119.347 293.124 163.486L320.709 150.576C318.713 130.463 312.156 111.141 301.689 94.0942C290.364 70.4692 272.634 49.872 249.752 35.1844C295.638 56.994 325.248 101.109 330.147 149.484L346.669 184.792C356.092 110.6 313.409 37.2496 240.116 10.684C164.611 -16.6816 82.2408 14.8879 43.219 81.8801L0.50237 66.3978Z" fill="white" fill-opacity="0.1"/>
</svg>
