<svg width="223" height="279" viewBox="0 0 223 279" fill="none" xmlns="http://www.w3.org/2000/svg">
<path d="M177.307 228.252C204.548 208.248 222.33 176.09 222.643 139.655C223.116 84.5725 183.497 38.5912 130.999 29.3728L131.252 1.4791e-05L80.0932 50.2862L130.38 101.443L130.672 67.4163C162.4 75.9003 185.642 104.979 185.347 139.342C185.139 163.539 173.307 184.917 155.198 198.221C149.018 202.76 142.104 206.352 134.675 208.802L150.155 224.549C160.551 219.814 169.725 213.244 177.385 205.342C197.847 186.228 209.642 158.754 208.462 129.863C213.102 164.703 198.285 198.683 171.359 219.306C170.736 219.783 170.106 220.253 169.47 220.716C163.856 224.801 157.739 228.314 151.191 231.154L134.747 247.317C150.4 244.007 164.846 237.404 177.307 228.252ZM90.4086 278.603L141.567 228.319L91.2805 177.162L91.0013 209.601C60.0108 200.635 37.4711 171.92 37.7615 138.076C38.0335 106.35 58.292 79.4787 86.4807 69.2921L71.9822 54.5438C59.5535 60.3653 48.6619 68.9288 40.1106 79.482C27.5403 92.0703 18.3559 108.077 14.1193 126.047C17.7202 91.7371 39.2806 62.8113 69.1513 48.7468L88.0287 30.1916C38.3912 40.9162 1.06262 84.8174 0.607174 137.752C0.139032 192.283 38.9607 237.897 90.6737 247.753L90.4086 278.603Z" fill="white" fill-opacity="0.1"/>
</svg>
